<svg width="91" height="90" viewBox="0 0 91 90" fill="none" xmlns="http://www.w3.org/2000/svg">
<rect x="0.5" width="90" height="90" rx="45" fill="#CCF0F7"/>
<mask id="mask0_2053_2988" style="mask-type:alpha" maskUnits="userSpaceOnUse" x="20" y="20" width="51" height="50">
<rect x="20.5" y="20" width="50" height="50" fill="#D9D9D9"/>
</mask>
<g mask="url(#mask0_2053_2988)">
<path d="M48.625 65.8337C44.875 65.8337 41.6805 64.5142 39.0416 61.8753C36.4027 59.2364 35.0833 56.042 35.0833 52.292V51.0941C32.0972 50.608 29.6145 49.2104 27.6354 46.9014C25.6562 44.5923 24.6666 41.8753 24.6666 38.7503V28.3337C24.6666 27.7434 24.8663 27.2486 25.2656 26.8493C25.6649 26.45 26.1597 26.2503 26.75 26.2503H30.9166C30.9166 25.66 31.1163 25.1653 31.5156 24.766C31.9149 24.3666 32.4097 24.167 33 24.167C33.5902 24.167 34.085 24.3666 34.4843 24.766C34.8836 25.1653 35.0833 25.66 35.0833 26.2503V30.417C35.0833 31.0073 34.8836 31.5021 34.4843 31.9014C34.085 32.3007 33.5902 32.5003 33 32.5003C32.4097 32.5003 31.9149 32.3007 31.5156 31.9014C31.1163 31.5021 30.9166 31.0073 30.9166 30.417H28.8333V38.7503C28.8333 41.042 29.6493 43.0038 31.2812 44.6357C32.9132 46.2677 34.875 47.0837 37.1666 47.0837C39.4583 47.0837 41.4201 46.2677 43.052 44.6357C44.684 43.0038 45.5 41.042 45.5 38.7503V30.417H43.4166C43.4166 31.0073 43.217 31.5021 42.8177 31.9014C42.4184 32.3007 41.9236 32.5003 41.3333 32.5003C40.743 32.5003 40.2482 32.3007 39.8489 31.9014C39.4496 31.5021 39.25 31.0073 39.25 30.417V26.2503C39.25 25.66 39.4496 25.1653 39.8489 24.766C40.2482 24.3666 40.743 24.167 41.3333 24.167C41.9236 24.167 42.4184 24.3666 42.8177 24.766C43.217 25.1653 43.4166 25.66 43.4166 26.2503H47.5833C48.1736 26.2503 48.6684 26.45 49.0677 26.8493C49.467 27.2486 49.6666 27.7434 49.6666 28.3337V38.7503C49.6666 41.8753 48.677 44.5923 46.6979 46.9014C44.7187 49.2104 42.2361 50.608 39.25 51.0941V52.292C39.25 54.8962 40.1614 57.1097 41.9843 58.9326C43.8073 60.7555 46.0208 61.667 48.625 61.667C51.2291 61.667 53.4427 60.7555 55.2656 58.9326C57.0885 57.1097 58 54.8962 58 52.292V48.8024C56.7847 48.351 55.7864 47.5958 55.0052 46.5368C54.2239 45.4778 53.8333 44.2712 53.8333 42.917C53.8333 41.1809 54.4409 39.7052 55.6562 38.4899C56.8715 37.2746 58.3472 36.667 60.0833 36.667C61.8194 36.667 63.2951 37.2746 64.5104 38.4899C65.7257 39.7052 66.3333 41.1809 66.3333 42.917C66.3333 44.2712 65.9427 45.4778 65.1614 46.5368C64.3802 47.5958 63.3819 48.351 62.1666 48.8024V52.292C62.1666 56.042 60.8472 59.2364 58.2083 61.8753C55.5694 64.5142 52.375 65.8337 48.625 65.8337ZM60.0833 45.0003C60.6736 45.0003 61.1684 44.8007 61.5677 44.4014C61.967 44.0021 62.1666 43.5073 62.1666 42.917C62.1666 42.3267 61.967 41.8319 61.5677 41.4326C61.1684 41.0333 60.6736 40.8337 60.0833 40.8337C59.493 40.8337 58.9982 41.0333 58.5989 41.4326C58.1996 41.8319 58 42.3267 58 42.917C58 43.5073 58.1996 44.0021 58.5989 44.4014C58.9982 44.8007 59.493 45.0003 60.0833 45.0003Z" fill="#0096B4"/>
</g>
</svg>
