<svg width="54" height="55" viewBox="0 0 54 55" fill="none" xmlns="http://www.w3.org/2000/svg">
<g opacity="0.5">
<mask id="mask0_3085_1820" style="mask-type:alpha" maskUnits="userSpaceOnUse" x="0" y="0" width="54" height="55">
<rect y="0.5" width="54" height="54" fill="#D9D9D9"/>
</mask>
<g mask="url(#mask0_3085_1820)">
<path d="M27 30.65L33.525 37.175C33.9375 37.5875 34.4625 37.7937 35.1 37.7937C35.7375 37.7937 36.2625 37.5875 36.675 37.175C37.0875 36.7625 37.2937 36.2375 37.2937 35.6C37.2937 34.9625 37.0875 34.4375 36.675 34.025L30.15 27.5L36.675 20.975C37.0875 20.5625 37.2937 20.0375 37.2937 19.4C37.2937 18.7625 37.0875 18.2375 36.675 17.825C36.2625 17.4125 35.7375 17.2063 35.1 17.2063C34.4625 17.2063 33.9375 17.4125 33.525 17.825L27 24.35L20.475 17.825C20.0625 17.4125 19.5375 17.2063 18.9 17.2063C18.2625 17.2063 17.7375 17.4125 17.325 17.825C16.9125 18.2375 16.7063 18.7625 16.7063 19.4C16.7063 20.0375 16.9125 20.5625 17.325 20.975L23.85 27.5L17.325 34.025C16.9125 34.4375 16.7063 34.9625 16.7063 35.6C16.7063 36.2375 16.9125 36.7625 17.325 37.175C17.7375 37.5875 18.2625 37.7937 18.9 37.7937C19.5375 37.7937 20.0625 37.5875 20.475 37.175L27 30.65ZM27 50C23.8875 50 20.9625 49.4094 18.225 48.2281C15.4875 47.0469 13.1062 45.4438 11.0812 43.4188C9.05625 41.3938 7.45313 39.0125 6.27188 36.275C5.09062 33.5375 4.5 30.6125 4.5 27.5C4.5 24.3875 5.09062 21.4625 6.27188 18.725C7.45313 15.9875 9.05625 13.6062 11.0812 11.5812C13.1062 9.55625 15.4875 7.95313 18.225 6.77188C20.9625 5.59062 23.8875 5 27 5C30.1125 5 33.0375 5.59062 35.775 6.77188C38.5125 7.95313 40.8938 9.55625 42.9188 11.5812C44.9438 13.6062 46.5469 15.9875 47.7281 18.725C48.9094 21.4625 49.5 24.3875 49.5 27.5C49.5 30.6125 48.9094 33.5375 47.7281 36.275C46.5469 39.0125 44.9438 41.3938 42.9188 43.4188C40.8938 45.4438 38.5125 47.0469 35.775 48.2281C33.0375 49.4094 30.1125 50 27 50Z" fill="#FF0000"/>
</g>
</g>
</svg>
