<svg width="54" height="55" viewBox="0 0 54 55" fill="none" xmlns="http://www.w3.org/2000/svg">
<g opacity="0.5">
<mask id="mask0_3085_1886" style="mask-type:alpha" maskUnits="userSpaceOnUse" x="0" y="0" width="54" height="55">
<rect y="0.5" width="54" height="54" fill="#D9D9D9"/>
</mask>
<g mask="url(#mask0_3085_1886)">
<path d="M23.85 37.85L39.7125 21.9875L36.5625 18.8375L23.85 31.55L17.4375 25.1375L14.2875 28.2875L23.85 37.85ZM27 50C23.8875 50 20.9625 49.4094 18.225 48.2281C15.4875 47.0469 13.1062 45.4438 11.0812 43.4188C9.05625 41.3938 7.45313 39.0125 6.27188 36.275C5.09062 33.5375 4.5 30.6125 4.5 27.5C4.5 24.3875 5.09062 21.4625 6.27188 18.725C7.45313 15.9875 9.05625 13.6062 11.0812 11.5812C13.1062 9.55625 15.4875 7.95313 18.225 6.77188C20.9625 5.59062 23.8875 5 27 5C30.1125 5 33.0375 5.59062 35.775 6.77188C38.5125 7.95313 40.8938 9.55625 42.9188 11.5812C44.9438 13.6062 46.5469 15.9875 47.7281 18.725C48.9094 21.4625 49.5 24.3875 49.5 27.5C49.5 30.6125 48.9094 33.5375 47.7281 36.275C46.5469 39.0125 44.9438 41.3938 42.9188 43.4188C40.8938 45.4438 38.5125 47.0469 35.775 48.2281C33.0375 49.4094 30.1125 50 27 50Z" fill="#00B4D8"/>
</g>
</g>
</svg>
