<svg width="54" height="55" viewBox="0 0 54 55" fill="none" xmlns="http://www.w3.org/2000/svg">
<g opacity="0.5">
<mask id="mask0_3085_123" style="mask-type:alpha" maskUnits="userSpaceOnUse" x="0" y="0" width="54" height="55">
<rect y="0.5" width="54" height="54" fill="#D9D9D9"/>
</mask>
<g mask="url(#mask0_3085_123)">
<path d="M29.25 32.9L32.4 29.75L27 24.35V14H22.5V26.15L29.25 32.9ZM20.7 40.4938C21.3 38.6938 22.3594 37.2031 23.8781 36.0219C25.3969 34.8406 27.15 34.25 29.1375 34.25H37.6875C38.5875 32.975 39.2813 31.5781 39.7688 30.0594C40.2563 28.5406 40.5 26.9375 40.5 25.25C40.5 20.8625 38.9719 17.1406 35.9156 14.0844C32.8594 11.0281 29.1375 9.5 24.75 9.5C20.3625 9.5 16.6406 11.0281 13.5844 14.0844C10.5281 17.1406 9 20.8625 9 25.25C9 28.925 10.0969 32.1594 12.2906 34.9531C14.4844 37.7469 17.2875 39.5938 20.7 40.4938ZM29.25 52.25C27.075 52.25 25.1625 51.5656 23.5125 50.1969C21.8625 48.8281 20.8313 47.1125 20.4188 45.05C15.8438 44.075 12.0469 41.75 9.02813 38.075C6.00938 34.4 4.5 30.125 4.5 25.25C4.5 19.625 6.46875 14.8438 10.4062 10.9062C14.3438 6.96875 19.125 5 24.75 5C30.375 5 35.1562 6.96875 39.0938 10.9062C43.0312 14.8438 45 19.625 45 25.25C45 26.8625 44.8219 28.4281 44.4656 29.9469C44.1094 31.4656 43.5938 32.9 42.9188 34.25C45.3938 34.25 47.4844 35.1313 49.1906 36.8938C50.8969 38.6563 51.75 40.775 51.75 43.25C51.75 45.725 50.8688 47.8438 49.1063 49.6063C47.3438 51.3688 45.225 52.25 42.75 52.25H29.25ZM29.25 47.75H42.75C43.9875 47.75 45.0469 47.3094 45.9281 46.4281C46.8094 45.5469 47.25 44.4875 47.25 43.25C47.25 42.0125 46.8094 40.9531 45.9281 40.0719C45.0469 39.1906 43.9875 38.75 42.75 38.75H29.25C28.0125 38.75 26.9531 39.1906 26.0719 40.0719C25.1906 40.9531 24.75 42.0125 24.75 43.25C24.75 44.4875 25.1906 45.5469 26.0719 46.4281C26.9531 47.3094 28.0125 47.75 29.25 47.75ZM29.25 45.5C28.6125 45.5 28.0781 45.2844 27.6469 44.8531C27.2156 44.4219 27 43.8875 27 43.25C27 42.6125 27.2156 42.0781 27.6469 41.6469C28.0781 41.2156 28.6125 41 29.25 41C29.8875 41 30.4219 41.2156 30.8531 41.6469C31.2844 42.0781 31.5 42.6125 31.5 43.25C31.5 43.8875 31.2844 44.4219 30.8531 44.8531C30.4219 45.2844 29.8875 45.5 29.25 45.5ZM36 45.5C35.3625 45.5 34.8281 45.2844 34.3969 44.8531C33.9656 44.4219 33.75 43.8875 33.75 43.25C33.75 42.6125 33.9656 42.0781 34.3969 41.6469C34.8281 41.2156 35.3625 41 36 41C36.6375 41 37.1719 41.2156 37.6031 41.6469C38.0344 42.0781 38.25 42.6125 38.25 43.25C38.25 43.8875 38.0344 44.4219 37.6031 44.8531C37.1719 45.2844 36.6375 45.5 36 45.5ZM42.75 45.5C42.1125 45.5 41.5781 45.2844 41.1469 44.8531C40.7156 44.4219 40.5 43.8875 40.5 43.25C40.5 42.6125 40.7156 42.0781 41.1469 41.6469C41.5781 41.2156 42.1125 41 42.75 41C43.3875 41 43.9219 41.2156 44.3531 41.6469C44.7844 42.0781 45 42.6125 45 43.25C45 43.8875 44.7844 44.4219 44.3531 44.8531C43.9219 45.2844 43.3875 45.5 42.75 45.5Z" fill="#0E0E0E"/>
</g>
</g>
</svg>
