<svg width="91" height="90" viewBox="0 0 91 90" fill="none" xmlns="http://www.w3.org/2000/svg">
<rect x="0.5" width="90" height="90" rx="45" fill="#CCF0F7"/>
<mask id="mask0_3085_3029" style="mask-type:alpha" maskUnits="userSpaceOnUse" x="20" y="20" width="51" height="50">
<rect x="20.5" y="20" width="50" height="50" fill="#D9D9D9"/>
</mask>
<g mask="url(#mask0_3085_3029)">
<path d="M48.6243 65.8332C44.8743 65.8332 41.6799 64.5137 39.041 61.8748C36.4021 59.2359 35.0827 56.0415 35.0827 52.2915V51.0936C32.0966 50.6075 29.6139 49.2099 27.6348 46.9009C25.6556 44.5919 24.666 41.8748 24.666 38.7498V28.3332C24.666 27.7429 24.8657 27.2481 25.265 26.8488C25.6643 26.4495 26.1591 26.2498 26.7493 26.2498H30.916C30.916 25.6596 31.1157 25.1648 31.515 24.7655C31.9143 24.3662 32.4091 24.1665 32.9993 24.1665C33.5896 24.1665 34.0844 24.3662 34.4837 24.7655C34.883 25.1648 35.0827 25.6596 35.0827 26.2498V30.4165C35.0827 31.0068 34.883 31.5016 34.4837 31.9009C34.0844 32.3002 33.5896 32.4998 32.9993 32.4998C32.4091 32.4998 31.9143 32.3002 31.515 31.9009C31.1157 31.5016 30.916 31.0068 30.916 30.4165H28.8327V38.7498C28.8327 41.0415 29.6487 43.0033 31.2806 44.6353C32.9125 46.2672 34.8743 47.0832 37.166 47.0832C39.4577 47.0832 41.4195 46.2672 43.0514 44.6353C44.6834 43.0033 45.4993 41.0415 45.4993 38.7498V30.4165H43.416C43.416 31.0068 43.2164 31.5016 42.8171 31.9009C42.4178 32.3002 41.923 32.4998 41.3327 32.4998C40.7424 32.4998 40.2476 32.3002 39.8483 31.9009C39.449 31.5016 39.2493 31.0068 39.2493 30.4165V26.2498C39.2493 25.6596 39.449 25.1648 39.8483 24.7655C40.2476 24.3662 40.7424 24.1665 41.3327 24.1665C41.923 24.1665 42.4178 24.3662 42.8171 24.7655C43.2164 25.1648 43.416 25.6596 43.416 26.2498H47.5827C48.173 26.2498 48.6678 26.4495 49.0671 26.8488C49.4664 27.2481 49.666 27.7429 49.666 28.3332V38.7498C49.666 41.8748 48.6764 44.5919 46.6973 46.9009C44.7181 49.2099 42.2355 50.6075 39.2493 51.0936V52.2915C39.2493 54.8957 40.1608 57.1092 41.9837 58.9321C43.8066 60.755 46.0202 61.6665 48.6243 61.6665C51.2285 61.6665 53.4421 60.755 55.265 58.9321C57.0879 57.1092 57.9993 54.8957 57.9993 52.2915V48.8019C56.7841 48.3505 55.7858 47.5953 55.0046 46.5363C54.2233 45.4773 53.8327 44.2707 53.8327 42.9165C53.8327 41.1804 54.4403 39.7047 55.6556 38.4894C56.8709 37.2741 58.3466 36.6665 60.0827 36.6665C61.8188 36.6665 63.2945 37.2741 64.5098 38.4894C65.725 39.7047 66.3327 41.1804 66.3327 42.9165C66.3327 44.2707 65.9421 45.4773 65.1608 46.5363C64.3796 47.5953 63.3813 48.3505 62.166 48.8019V52.2915C62.166 56.0415 60.8466 59.2359 58.2077 61.8748C55.5688 64.5137 52.3743 65.8332 48.6243 65.8332ZM60.0827 44.9998C60.673 44.9998 61.1678 44.8002 61.5671 44.4009C61.9664 44.0016 62.166 43.5068 62.166 42.9165C62.166 42.3262 61.9664 41.8314 61.5671 41.4321C61.1678 41.0328 60.673 40.8332 60.0827 40.8332C59.4924 40.8332 58.9976 41.0328 58.5983 41.4321C58.199 41.8314 57.9993 42.3262 57.9993 42.9165C57.9993 43.5068 58.199 44.0016 58.5983 44.4009C58.9976 44.8002 59.4924 44.9998 60.0827 44.9998Z" fill="#0096B4"/>
</g>
</svg>
