<svg width="90" height="90" viewBox="0 0 90 90" fill="none" xmlns="http://www.w3.org/2000/svg">
<rect width="90" height="90" rx="45" fill="#CCF0F7"/>
<mask id="mask0_3085_436" style="mask-type:alpha" maskUnits="userSpaceOnUse" x="17" y="17" width="56" height="56">
<rect x="17.5" y="17.5" width="55" height="55" fill="#D9D9D9"/>
</mask>
<g mask="url(#mask0_3085_436)">
<path d="M44.9993 44.9998C42.4785 44.9998 40.3205 44.1023 38.5254 42.3071C36.7303 40.512 35.8327 38.354 35.8327 35.8332C35.8327 33.3123 36.7303 31.1544 38.5254 29.3592C40.3205 27.5641 42.4785 26.6665 44.9993 26.6665C47.5202 26.6665 49.6782 27.5641 51.4733 29.3592C53.2684 31.1544 54.166 33.3123 54.166 35.8332C54.166 38.354 53.2684 40.512 51.4733 42.3071C49.6782 44.1023 47.5202 44.9998 44.9993 44.9998ZM26.666 58.7498V56.9165C26.666 55.6179 27.0002 54.4243 27.6686 53.3358C28.337 52.2472 29.225 51.4165 30.3327 50.8436C32.7007 49.6596 35.107 48.7715 37.5514 48.1795C39.9959 47.5875 42.4785 47.2915 44.9993 47.2915C47.5202 47.2915 50.0028 47.5875 52.4473 48.1795C54.8917 48.7715 57.298 49.6596 59.666 50.8436C60.7737 51.4165 61.6617 52.2472 62.3301 53.3358C62.9985 54.4243 63.3327 55.6179 63.3327 56.9165V58.7498C63.3327 60.0103 62.8839 61.0892 61.9863 61.9868C61.0888 62.8844 60.0098 63.3332 58.7493 63.3332H31.2493C29.9889 63.3332 28.9099 62.8844 28.0124 61.9868C27.1148 61.0892 26.666 60.0103 26.666 58.7498ZM31.2493 58.7498H58.7493V56.9165C58.7493 56.4964 58.6443 56.1144 58.4342 55.7707C58.2242 55.4269 57.9473 55.1596 57.6035 54.9686C55.541 53.9373 53.4594 53.1639 51.3587 52.6483C49.258 52.1326 47.1382 51.8748 44.9993 51.8748C42.8605 51.8748 40.7407 52.1326 38.64 52.6483C36.5393 53.1639 34.4577 53.9373 32.3952 54.9686C32.0514 55.1596 31.7745 55.4269 31.5645 55.7707C31.3544 56.1144 31.2493 56.4964 31.2493 56.9165V58.7498ZM44.9993 40.4165C46.2598 40.4165 47.3388 39.9677 48.2363 39.0701C49.1339 38.1726 49.5827 37.0936 49.5827 35.8332C49.5827 34.5728 49.1339 33.4938 48.2363 32.5962C47.3388 31.6986 46.2598 31.2498 44.9993 31.2498C43.7389 31.2498 42.6599 31.6986 41.7624 32.5962C40.8648 33.4938 40.416 34.5728 40.416 35.8332C40.416 37.0936 40.8648 38.1726 41.7624 39.0701C42.6599 39.9677 43.7389 40.4165 44.9993 40.4165Z" fill="#0096B4"/>
</g>
</svg>
