<svg width="35" height="36" viewBox="0 0 35 36" fill="none" xmlns="http://www.w3.org/2000/svg">
<circle cx="17.5" cy="18" r="17.5" fill="#55CDE5"/>
<mask id="mask0_3115_321" style="mask-type:alpha" maskUnits="userSpaceOnUse" x="7" y="7" width="21" height="22">
<rect x="7" y="7.5" width="21" height="21" fill="#D9D9D9"/>
</mask>
<g mask="url(#mask0_3115_321)">
<path d="M17.4996 21.5C18.5934 21.5 19.523 21.1172 20.2887 20.3516C21.0543 19.5859 21.4371 18.6562 21.4371 17.5625C21.4371 16.4688 21.0543 15.5391 20.2887 14.7734C19.523 14.0078 18.5934 13.625 17.4996 13.625C16.4059 13.625 15.4762 14.0078 14.7105 14.7734C13.9449 15.5391 13.5621 16.4688 13.5621 17.5625C13.5621 18.6562 13.9449 19.5859 14.7105 20.3516C15.4762 21.1172 16.4059 21.5 17.4996 21.5ZM17.4996 19.925C16.8434 19.925 16.2855 19.6953 15.8262 19.2359C15.3668 18.7766 15.1371 18.2188 15.1371 17.5625C15.1371 16.9062 15.3668 16.3484 15.8262 15.8891C16.2855 15.4297 16.8434 15.2 17.4996 15.2C18.1559 15.2 18.7137 15.4297 19.173 15.8891C19.6324 16.3484 19.8621 16.9062 19.8621 17.5625C19.8621 18.2188 19.6324 18.7766 19.173 19.2359C18.7137 19.6953 18.1559 19.925 17.4996 19.925ZM17.4996 24.125C15.5454 24.125 13.7626 23.6 12.1512 22.55C10.5397 21.5 9.26732 20.1146 8.33398 18.3937C8.26107 18.2625 8.20638 18.1276 8.16992 17.9891C8.13346 17.8505 8.11523 17.7083 8.11523 17.5625C8.11523 17.4167 8.13346 17.2745 8.16992 17.1359C8.20638 16.9974 8.26107 16.8625 8.33398 16.7313C9.26732 15.0104 10.5397 13.625 12.1512 12.575C13.7626 11.525 15.5454 11 17.4996 11C19.4538 11 21.2366 11.525 22.848 12.575C24.4595 13.625 25.7319 15.0104 26.6652 16.7313C26.7382 16.8625 26.7928 16.9974 26.8293 17.1359C26.8658 17.2745 26.884 17.4167 26.884 17.5625C26.884 17.7083 26.8658 17.8505 26.8293 17.9891C26.7928 18.1276 26.7382 18.2625 26.6652 18.3937C25.7319 20.1146 24.4595 21.5 22.848 22.55C21.2366 23.6 19.4538 24.125 17.4996 24.125Z" fill="white"/>
</g>
</svg>
