<svg width="90" height="90" viewBox="0 0 90 90" fill="none" xmlns="http://www.w3.org/2000/svg">
<rect width="90" height="90" rx="45" fill="#00B4D8" fill-opacity="0.1"/>
<path d="M44.9948 44.6104C52.0445 44.6104 57.767 39.0892 57.767 32.3103C57.767 25.5315 52.0445 20 44.9948 20C37.9452 20 32.2227 25.5212 32.2227 32.3103C32.2227 39.0994 37.9452 44.6104 44.9948 44.6104ZM44.9948 22.8833C50.3882 22.8833 54.773 27.106 54.773 32.3001C54.773 37.4942 50.3882 41.7169 44.9948 41.7169C39.6014 41.7169 35.2166 37.4942 35.2166 32.3001C35.2166 27.106 39.6014 22.8833 44.9948 22.8833Z" fill="#0096B4"/>
<path d="M57.7144 46.3096H50.3781C49.8261 46.3096 49.3164 46.6061 49.051 47.0764L44.9953 54.4381L40.9397 47.0764C40.6849 46.6061 40.1753 46.3096 39.6126 46.3096H32.2762C26.6599 46.3096 22.084 50.7163 22.084 56.1251V68.5581C22.084 69.3556 22.7529 69.9998 23.581 69.9998H66.4203C67.2484 69.9998 67.9173 69.3556 67.9173 68.5581V56.1251C67.9067 50.7163 63.3414 46.3096 57.7144 46.3096ZM64.9127 67.1267H25.078V56.1251C25.078 53.252 26.9041 50.7879 29.484 49.7348C29.8025 51.2378 30.5138 53.569 32.0745 56.2171C31.395 56.9635 30.981 57.9348 30.981 59.0084C30.981 61.3498 32.9557 63.2516 35.387 63.2516C37.8183 63.2516 39.793 61.3498 39.793 59.0084C39.793 56.667 37.8183 54.7652 35.387 54.7652C35.1534 54.7652 34.9199 54.7857 34.6863 54.8266C33.3167 52.5056 32.7009 50.4709 32.4249 49.2031H38.7101L43.6682 58.1905C44.3052 59.1925 45.7067 59.2436 46.3118 58.1905L51.27 49.2031H57.7038C58.0329 49.2031 58.3515 49.2338 58.67 49.2747C58.309 50.3789 57.6614 51.6979 57.1305 52.659C54.2745 52.3829 50.8347 54.8675 48.5733 59.0698C48.4246 59.3561 48.3715 59.673 48.4246 59.99L48.775 61.8917C48.9236 62.679 49.6986 63.2005 50.5162 63.0573C51.3337 62.9142 51.8751 62.1678 51.7265 61.3805L51.4717 59.9695C53.457 56.5443 56.1431 55.0924 57.1942 55.6139C57.7251 55.8797 58.0436 56.7386 58.0542 57.9144C58.0542 59.3152 57.6083 61.0124 56.812 62.6279L55.4636 63.2414C54.7205 63.5788 54.3913 64.4376 54.7417 65.1636C55.1345 65.8486 55.9202 66.1963 56.7377 65.8588L58.5532 65.0409C58.8505 64.908 59.0946 64.683 59.2433 64.3967C60.4111 62.2189 61.0482 59.9184 61.0482 57.9144C61.0375 56.2683 60.5916 54.9391 59.7847 54.0086C60.305 53.0578 61.0375 51.6161 61.4941 50.2562C63.5325 51.4832 64.9021 53.661 64.9021 56.1353V67.1267H64.9127ZM33.975 59.0084C33.975 58.262 34.612 57.6486 35.387 57.6486C36.162 57.6486 36.7991 58.262 36.7991 59.0084C36.7991 59.7548 36.162 60.3683 35.387 60.3683C34.612 60.3683 33.975 59.765 33.975 59.0084Z" fill="#0096B4"/>
</svg>
