<svg width="35" height="36" viewBox="0 0 35 36" fill="none" xmlns="http://www.w3.org/2000/svg">
<circle cx="17.5" cy="18" r="17.5" fill="#007890" fill-opacity="0.7"/>
<mask id="mask0_3115_326" style="mask-type:alpha" maskUnits="userSpaceOnUse" x="7" y="7" width="21" height="22">
<rect x="7" y="7.5" width="21" height="21" fill="#D9D9D9"/>
</mask>
<g mask="url(#mask0_3115_326)">
<path d="M11.375 25.8749C10.8937 25.8749 10.4818 25.7035 10.1391 25.3608C9.79635 25.0181 9.625 24.6062 9.625 24.1249V11.8749C9.625 11.3937 9.79635 10.9817 10.1391 10.639C10.4818 10.2963 10.8937 10.1249 11.375 10.1249H19.1844L17.4344 11.8749H11.375V24.1249H23.625V18.0437L25.375 16.2937V24.1249C25.375 24.6062 25.2036 25.0181 24.8609 25.3608C24.5182 25.7035 24.1062 25.8749 23.625 25.8749H11.375ZM14.875 20.6249V16.9062L22.9031 8.87803C23.0781 8.70303 23.275 8.57178 23.4938 8.48428C23.7125 8.39678 23.9313 8.35303 24.15 8.35303C24.3833 8.35303 24.6057 8.39678 24.8172 8.48428C25.0286 8.57178 25.2219 8.70303 25.3969 8.87803L26.6219 10.1249C26.7823 10.2999 26.9062 10.4931 26.9937 10.7046C27.0813 10.916 27.125 11.1312 27.125 11.3499C27.125 11.5687 27.0849 11.7838 27.0047 11.9952C26.9245 12.2067 26.7969 12.3999 26.6219 12.5749L18.5938 20.6249H14.875ZM16.625 18.8749H17.85L22.925 13.7999L22.3125 13.1874L21.6781 12.5749L16.625 17.628V18.8749Z" fill="white"/>
</g>
</svg>
