<svg width="54" height="55" viewBox="0 0 54 55" fill="none" xmlns="http://www.w3.org/2000/svg">
<g opacity="0.5">
<mask id="mask0_3085_396" style="mask-type:alpha" maskUnits="userSpaceOnUse" x="0" y="0" width="54" height="55">
<rect y="0.5" width="54" height="54" fill="#D9D9D9"/>
</mask>
<g mask="url(#mask0_3085_396)">
<path d="M20.25 41H32.625C33.2625 41 33.8531 40.8406 34.3969 40.5219C34.9406 40.2031 35.325 39.7625 35.55 39.2L40.275 28.175C40.35 27.9875 40.4062 27.8 40.4438 27.6125C40.4813 27.425 40.5 27.2375 40.5 27.05V25.25C40.5 24.6125 40.2844 24.0781 39.8531 23.6469C39.4219 23.2156 38.8875 23 38.25 23H27.9L29.25 15.35C29.325 14.975 29.3063 14.6187 29.1938 14.2812C29.0813 13.9438 28.8938 13.6438 28.6313 13.3813L27 11.75L16.65 23C16.35 23.3 16.125 23.6375 15.975 24.0125C15.825 24.3875 15.75 24.8 15.75 25.25V36.5C15.75 37.7375 16.1906 38.7969 17.0719 39.6781C17.9531 40.5594 19.0125 41 20.25 41ZM27 50C23.8875 50 20.9625 49.4094 18.225 48.2281C15.4875 47.0469 13.1062 45.4438 11.0812 43.4188C9.05625 41.3938 7.45313 39.0125 6.27188 36.275C5.09062 33.5375 4.5 30.6125 4.5 27.5C4.5 24.3875 5.09062 21.4625 6.27188 18.725C7.45313 15.9875 9.05625 13.6062 11.0812 11.5812C13.1062 9.55625 15.4875 7.95313 18.225 6.77188C20.9625 5.59062 23.8875 5 27 5C30.1125 5 33.0375 5.59062 35.775 6.77188C38.5125 7.95313 40.8938 9.55625 42.9188 11.5812C44.9438 13.6062 46.5469 15.9875 47.7281 18.725C48.9094 21.4625 49.5 24.3875 49.5 27.5C49.5 30.6125 48.9094 33.5375 47.7281 36.275C46.5469 39.0125 44.9438 41.3938 42.9188 43.4188C40.8938 45.4438 38.5125 47.0469 35.775 48.2281C33.0375 49.4094 30.1125 50 27 50ZM27 45.5C32.025 45.5 36.2812 43.7563 39.7687 40.2687C43.2563 36.7812 45 32.525 45 27.5C45 22.475 43.2563 18.2188 39.7687 14.7313C36.2812 11.2438 32.025 9.5 27 9.5C21.975 9.5 17.7188 11.2438 14.2313 14.7313C10.7438 18.2188 9 22.475 9 27.5C9 32.525 10.7438 36.7812 14.2313 40.2687C17.7188 43.7563 21.975 45.5 27 45.5Z" fill="#00CB51"/>
</g>
</g>
</svg>
